<svg width="938" height="721" viewBox="0 0 938 721" fill="none" xmlns="http://www.w3.org/2000/svg">
<path d="M253.011 421.432C176.82 401.535 121.981 328.798 121.981 245.755C121.981 144.445 204.11 62.3145 305.422 62.3145C380.161 62.3145 444.455 107.009 473.046 171.128L779.122 720.373C584.034 717.785 278.075 686.874 252.579 474.316C250.41 456.229 250.804 438.493 253.011 421.432Z" fill="url(#paint0_linear_1027_61365)"/>
<path fill-rule="evenodd" clip-rule="evenodd" d="M340.847 246.726L404.906 365.623L535.809 283.759L473.044 171.128C444.453 107.009 380.16 62.3145 305.421 62.3145C287.035 62.3145 269.282 64.934 252.536 69.9671C224.729 78.3252 199.701 93.1158 179.174 112.608L238.936 219.549L340.847 246.726Z" fill="url(#paint1_linear_1027_61365)"/>
<path d="M0 421.916C-0.00379137 209.843 139.935 103.311 252.538 69.9673L340.851 246.725L0 421.916Z" fill="url(#paint2_linear_1027_61365)"/>
<path d="M934.364 75.9033L399.571 355.432C439.365 433.079 561.174 558.285 736.365 509.756C931.932 455.582 947.953 196.741 934.364 75.9033Z" fill="url(#paint3_linear_1027_61365)"/>
<circle cx="363.173" cy="160.829" r="32.5147" fill="white"/>
<ellipse cx="353.468" cy="168.108" rx="19.897" ry="20.3823" fill="black"/>
<path d="M150.128 344.755C173.4 383.837 208.599 409.834 253.011 421.432C253.011 421.432 294.218 404.499 318.133 355.303C342.048 306.107 340.849 246.726 340.849 246.726L150.128 344.755Z" fill="url(#paint4_linear_1027_61365)"/>
<path fill-rule="evenodd" clip-rule="evenodd" d="M271.363 65.4111C307.128 55.4807 361.3 33.9094 387.552 0C391.685 17.7897 395.747 57.9087 379.5 77.8872C356.845 67.8752 331.783 62.3147 305.421 62.3147C293.783 62.3147 282.399 63.3642 271.363 65.4111ZM412.474 96.7758L412.697 96.7517C418.709 77.62 416.523 58.4883 412.697 47.0093C401.687 67.9792 390.175 73.6978 380.09 78.1492C391.554 83.2644 402.397 89.5215 412.474 96.7758Z" fill="#5F5DE5"/>
<defs>
<linearGradient id="paint0_linear_1027_61365" x1="450.552" y1="62.3145" x2="450.552" y2="720.373" gradientUnits="userSpaceOnUse">
<stop stop-color="#5F5DE5"/>
<stop offset="1" stop-color="#4085D3"/>
</linearGradient>
<linearGradient id="paint1_linear_1027_61365" x1="387.912" y1="10.3881" x2="335.018" y2="405.903" gradientUnits="userSpaceOnUse">
<stop stop-color="#5F5DE5"/>
<stop offset="1" stop-color="#25A7C2"/>
</linearGradient>
<linearGradient id="paint2_linear_1027_61365" x1="269.998" y1="46.7842" x2="-79.4138" y2="470.446" gradientUnits="userSpaceOnUse">
<stop stop-color="#7CCADA"/>
<stop offset="1" stop-color="#4085D3"/>
</linearGradient>
<linearGradient id="paint3_linear_1027_61365" x1="668.785" y1="75.9033" x2="668.785" y2="520.624" gradientUnits="userSpaceOnUse">
<stop stop-color="#25A7C2"/>
<stop offset="1" stop-color="#7CCADA"/>
</linearGradient>
<linearGradient id="paint4_linear_1027_61365" x1="69.5697" y1="439.873" x2="489.349" y2="204.991" gradientUnits="userSpaceOnUse">
<stop stop-color="#7CCADA"/>
<stop offset="0.713542" stop-color="#4085D3"/>
</linearGradient>
</defs>
</svg>
